<svg width="41" height="41" viewBox="0 0 41 41" fill="none" xmlns="http://www.w3.org/2000/svg">
<path d="M20.5 0.320312C9.35613 0.320312 0.320312 9.35613 0.320312 20.5C0.320312 31.6439 9.35613 40.6797 20.5 40.6797C31.6439 40.6797 40.6797 31.6439 40.6797 20.5C40.6797 9.35613 31.6439 0.320312 20.5 0.320312ZM21.9414 30.2295C21.9414 30.4277 21.7792 30.5898 21.5811 30.5898H19.4189C19.2208 30.5898 19.0586 30.4277 19.0586 30.2295V17.9775C19.0586 17.7793 19.2208 17.6172 19.4189 17.6172H21.5811C21.7792 17.6172 21.9414 17.7793 21.9414 17.9775V30.2295ZM20.5 14.7344C19.9342 14.7228 19.3955 14.49 18.9995 14.0857C18.6034 13.6815 18.3816 13.1382 18.3816 12.5723C18.3816 12.0064 18.6034 11.463 18.9995 11.0588C19.3955 10.6546 19.9342 10.4217 20.5 10.4102C21.0658 10.4217 21.6045 10.6546 22.0006 11.0588C22.3966 11.463 22.6184 12.0064 22.6184 12.5723C22.6184 13.1382 22.3966 13.6815 22.0006 14.0857C21.6045 14.49 21.0658 14.7228 20.5 14.7344Z" fill="#25A559"/>
</svg>
