<svg width="28" height="28" viewBox="0 0 28 28" fill="none" xmlns="http://www.w3.org/2000/svg">
<path d="M14 26.6622C14.49 26.651 14.9601 26.4668 15.3274 26.1422C15.6946 25.8177 15.9352 25.3738 16.0067 24.8889H11.9156C11.989 25.3869 12.2409 25.8413 12.6243 26.1675C13.0078 26.4937 13.4966 26.6695 14 26.6622Z" fill="#AAAAAA"/>
<path d="M25.55 21.8789L25.2856 21.6456C24.5353 20.9772 23.8787 20.2107 23.3333 19.3667C22.7377 18.202 22.3807 16.9301 22.2833 15.6256V11.7834C22.2802 11.3167 22.2386 10.851 22.1589 10.3912C20.8414 10.1204 19.658 9.40263 18.809 8.35945C17.96 7.31626 17.4976 6.01173 17.5 4.66673V4.17673C16.6879 3.7771 15.8155 3.5143 14.9178 3.39895V2.41895C14.9178 2.14357 14.8084 1.87946 14.6137 1.68474C14.4189 1.49001 14.1548 1.38062 13.8794 1.38062C13.6041 1.38062 13.34 1.49001 13.1452 1.68474C12.9505 1.87946 12.8411 2.14357 12.8411 2.41895V3.43784C10.8311 3.72138 8.99156 4.72253 7.66206 6.25645C6.33256 7.79038 5.6029 9.7535 5.60778 11.7834V15.6256C5.51037 16.9301 5.15338 18.202 4.55778 19.3667C4.0218 20.2086 3.37571 20.975 2.63667 21.6456L2.37222 21.8789V24.0723H25.55V21.8789Z" fill="#AAAAAA"/>
<path d="M23.3333 8.55561C25.4811 8.55561 27.2222 6.8145 27.2222 4.66672C27.2222 2.51895 25.4811 0.777832 23.3333 0.777832C21.1856 0.777832 19.4444 2.51895 19.4444 4.66672C19.4444 6.8145 21.1856 8.55561 23.3333 8.55561Z" fill="#AAAAAA"/>
</svg>
