<svg width="6" height="9" viewBox="0 0 6 9" fill="none" xmlns="http://www.w3.org/2000/svg">
<path fill-rule="evenodd" clip-rule="evenodd" d="M3.00001 8.92969C2.92542 8.92969 2.85388 8.89635 2.80114 8.83701C2.74839 8.77768 2.71876 8.6972 2.71876 8.61328L2.71876 1.15052L0.949136 3.14198C0.896325 3.2014 0.824697 3.23477 0.75001 3.23477C0.675324 3.23477 0.603697 3.2014 0.550886 3.14198C0.498074 3.08257 0.468405 3.00199 0.468405 2.91797C0.468405 2.83395 0.498074 2.75337 0.550886 2.69395L2.80089 0.162704C2.82701 0.133237 2.85805 0.109859 2.89222 0.0939083C2.92639 0.0779581 2.96302 0.069747 3.00001 0.069747C3.037 0.069747 3.07364 0.0779581 3.1078 0.0939083C3.14197 0.109859 3.17301 0.133237 3.19914 0.162704L5.44914 2.69395C5.50195 2.75337 5.53162 2.83395 5.53162 2.91797C5.53162 3.00199 5.50195 3.08257 5.44914 3.14198C5.39632 3.2014 5.3247 3.23477 5.25001 3.23477C5.17532 3.23477 5.1037 3.2014 5.05089 3.14198L3.28126 1.15052L3.28126 8.61328C3.28126 8.6972 3.25163 8.77768 3.19888 8.83701C3.14614 8.89635 3.0746 8.92969 3.00001 8.92969Z" fill="white"/>
</svg>
