<svg width="41" height="41" viewBox="0 0 41 41" fill="none" xmlns="http://www.w3.org/2000/svg">
<path d="M41 20.5C41 25.9369 38.8402 31.1512 34.9957 34.9957C31.1512 38.8402 25.9369 41 20.5 41C15.0631 41 9.84881 38.8402 6.00431 34.9957C2.15982 31.1512 0 25.9369 0 20.5C0 15.0631 2.15982 9.84881 6.00431 6.00431C9.84881 2.15982 15.0631 0 20.5 0C25.9369 0 31.1512 2.15982 34.9957 6.00431C38.8402 9.84881 41 15.0631 41 20.5ZM20.5 8.96875C20.5 8.62894 20.365 8.30305 20.1247 8.06277C19.8844 7.82249 19.5586 7.6875 19.2188 7.6875C18.8789 7.6875 18.5531 7.82249 18.3128 8.06277C18.0725 8.30305 17.9375 8.62894 17.9375 8.96875V23.0625C17.9376 23.2883 17.9973 23.5101 18.1107 23.7054C18.2241 23.9008 18.3871 24.0626 18.5833 24.1746L27.552 29.2996C27.8463 29.4587 28.1912 29.4963 28.5129 29.4045C28.8346 29.3126 29.1076 29.0986 29.2736 28.8081C29.4396 28.5177 29.4854 28.1738 29.4012 27.85C29.317 27.5262 29.1095 27.2482 28.823 27.0754L20.5 22.3194V8.96875Z" fill="#25A559"/>
</svg>
