<svg width="111" height="111" viewBox="0 0 111 111" fill="none" xmlns="http://www.w3.org/2000/svg">
<path d="M97.4463 90.3479C103.051 83.6051 106.948 75.6117 108.81 67.0439C110.672 58.476 110.442 49.5859 108.141 41.1254C105.84 32.665 101.536 24.8831 95.5913 18.4382C89.6469 11.9933 82.2376 7.07488 73.9903 4.09907C65.7431 1.12326 56.9004 0.177581 48.2103 1.34204C39.5202 2.5065 31.2384 5.74684 24.0655 10.7889C16.8926 15.831 11.0396 22.5266 7.00164 30.3091C2.96367 38.0917 0.859529 46.7323 0.867208 55.5C0.870155 68.2458 5.36171 80.5834 13.5537 90.3479L13.4757 90.4143C13.7488 90.7421 14.061 91.0231 14.342 91.3469C14.6932 91.7489 15.0717 92.1274 15.4347 92.5176C16.5273 93.704 17.6512 94.8435 18.8297 95.9127C19.1887 96.2405 19.5594 96.5449 19.9224 96.8571C21.1711 97.9341 22.455 98.9565 23.7857 99.9087C23.9574 100.026 24.1135 100.178 24.2852 100.299V100.252C33.4249 106.684 44.328 110.136 55.5039 110.136C66.6798 110.136 77.583 106.684 86.7227 100.252V100.299C86.8944 100.178 87.0466 100.026 87.2222 99.9087C88.549 98.9526 89.8367 97.9341 91.0855 96.8571C91.4484 96.5449 91.8191 96.2366 92.1782 95.9127C93.3567 94.8395 94.4805 93.704 95.5732 92.5176C95.9361 92.1274 96.3107 91.7489 96.6658 91.3469C96.9429 91.0231 97.259 90.7421 97.5322 90.4104L97.4463 90.3479ZM55.5 24.2813C58.9732 24.2813 62.3683 25.3112 65.2561 27.2408C68.144 29.1703 70.3947 31.9129 71.7238 35.1217C73.053 38.3305 73.4007 41.8613 72.7232 45.2677C72.0456 48.6741 70.3731 51.8031 67.9172 54.259C65.4613 56.7149 62.3323 58.3874 58.9259 59.0649C55.5195 59.7425 51.9887 59.3948 48.7799 58.0656C45.5711 56.7365 42.8285 54.4857 40.899 51.5979C38.9694 48.7101 37.9395 45.315 37.9395 41.8418C37.9395 37.1845 39.7896 32.7179 43.0828 29.4246C46.3761 26.1314 50.8427 24.2813 55.5 24.2813ZM24.3086 90.3479C24.3763 85.224 26.4586 80.3328 30.105 76.7324C33.7514 73.132 38.6686 71.112 43.793 71.1094H67.2071C72.3314 71.112 77.2487 73.132 80.8951 76.7324C84.5415 80.3328 86.6238 85.224 86.6915 90.3479C78.133 98.0603 67.0208 102.328 55.5 102.328C43.9793 102.328 32.867 98.0603 24.3086 90.3479Z" fill="#25A559"/>
</svg>
