<svg width="18" height="18" viewBox="0 0 18 18" fill="none" xmlns="http://www.w3.org/2000/svg">
<path d="M15 6.62501C14.2196 6.62495 13.4589 6.38012 12.825 5.92501C12.7895 6.01992 12.7261 6.10181 12.6431 6.15985C12.56 6.21788 12.4613 6.24933 12.36 6.25001H5.64C5.50739 6.25001 5.38021 6.19733 5.28645 6.10357C5.19268 6.0098 5.14 5.88262 5.14 5.75001C5.14 5.6174 5.19268 5.49023 5.28645 5.39646C5.38021 5.30269 5.50739 5.25001 5.64 5.25001H12.1C11.6912 4.74632 11.4209 4.14472 11.3157 3.50463C11.2105 2.86453 11.274 2.20805 11.5 1.60001C10.6872 1.36647 9.84564 1.24865 9 1.25001C4.59 1.25001 1 4.39001 1 8.25001C1 12.11 4.59 15.25 9 15.25C9.82507 15.2491 10.6461 15.1347 11.44 14.91L14.205 16.67C14.2805 16.7184 14.3676 16.7457 14.4572 16.7489C14.5469 16.7521 14.6357 16.7311 14.7144 16.6881C14.7932 16.6452 14.8589 16.5818 14.9047 16.5048C14.9506 16.4277 14.9749 16.3397 14.975 16.25V12.885C15.6006 12.2849 16.0999 11.5656 16.4433 10.7696C16.7868 9.9736 16.9676 9.11693 16.975 8.25001C16.9728 7.56915 16.8579 6.89335 16.635 6.25001C16.1255 6.49753 15.5664 6.62577 15 6.62501ZM10.875 11.25H7.125C6.99239 11.25 6.86521 11.1973 6.77145 11.1036C6.67768 11.0098 6.625 10.8826 6.625 10.75C6.625 10.6174 6.67768 10.4902 6.77145 10.3965C6.86521 10.3027 6.99239 10.25 7.125 10.25H10.875C11.0076 10.25 11.1348 10.3027 11.2286 10.3965C11.3223 10.4902 11.375 10.6174 11.375 10.75C11.375 10.8826 11.3223 11.0098 11.2286 11.1036C11.1348 11.1973 11.0076 11.25 10.875 11.25ZM12.5 8.75001H5.5C5.36739 8.75001 5.24021 8.69733 5.14645 8.60357C5.05268 8.5098 5 8.38262 5 8.25001C5 8.1174 5.05268 7.99023 5.14645 7.89646C5.24021 7.80269 5.36739 7.75001 5.5 7.75001H12.5C12.6326 7.75001 12.7598 7.80269 12.8536 7.89646C12.9473 7.99023 13 8.1174 13 8.25001C13 8.38262 12.9473 8.5098 12.8536 8.60357C12.7598 8.69733 12.6326 8.75001 12.5 8.75001Z" fill="#AAAAAA"/>
<path d="M15 5.375C16.3807 5.375 17.5 4.25571 17.5 2.875C17.5 1.49429 16.3807 0.375 15 0.375C13.6193 0.375 12.5 1.49429 12.5 2.875C12.5 4.25571 13.6193 5.375 15 5.375Z" fill="#AAAAAA"/>
</svg>
