<svg width="13" height="15" viewBox="0 0 13 15" fill="none" xmlns="http://www.w3.org/2000/svg">
<path d="M8.35714 0V3.75H12.5357L8.35714 0ZM9.40178 7.5H3.13393V9.375H9.40178V7.5ZM7.3125 3.75V0H1.56696C0.701543 0 0 0.62959 0 1.40625V13.5938C0 14.3701 0.701543 15 1.56696 15H10.9687C11.8342 15 12.5357 14.3704 12.5357 13.5938V4.6875H8.38652C7.77932 4.6875 7.3125 4.26855 7.3125 3.75ZM2.08929 2.10938C2.08929 1.98135 2.20779 1.875 2.35045 1.875H4.96205C5.10569 1.875 5.22321 1.98135 5.22321 2.10938V2.57812C5.22321 2.70645 5.10569 2.8125 4.96205 2.8125H2.35045C2.20779 2.8125 2.08929 2.70645 2.08929 2.57812V2.10938ZM2.08929 3.98438C2.08929 3.85547 2.20779 3.75 2.35045 3.75H4.96205C5.10569 3.75 5.22321 3.85547 5.22321 3.98438V4.45312C5.22321 4.58203 5.10569 4.6875 4.96205 4.6875H2.35045C2.20779 4.6875 2.08929 4.58203 2.08929 4.45312V3.98438ZM10.4464 12.8906C10.4464 13.0188 10.3281 13.125 10.1853 13.125H7.57366C7.43002 13.125 7.3125 13.0195 7.3125 12.8906V12.4219C7.3125 12.2937 7.43084 12.1875 7.57366 12.1875H10.1853C10.3281 12.1875 10.4464 12.2937 10.4464 12.4219V12.8906ZM10.4464 7.03125V9.84375C10.4464 10.1038 10.2138 10.3125 9.92411 10.3125H2.61161C2.32205 10.3125 2.08929 10.1045 2.08929 9.84375V7.03125C2.08929 6.77051 2.32205 6.5625 2.61161 6.5625H9.92411C10.2146 6.5625 10.4464 6.77051 10.4464 7.03125Z" fill="#AAAAAA"/>
</svg>
