<svg width="41" height="41" viewBox="0 0 41 41" fill="none" xmlns="http://www.w3.org/2000/svg">
<path d="M20.5 40.6562C17.7117 40.6562 15.0914 40.1268 12.6391 39.0679C10.1867 38.0104 8.05352 36.5746 6.23945 34.7605C4.42539 32.9465 2.98959 30.8133 1.93206 28.3609C0.873188 25.9086 0.34375 23.2883 0.34375 20.5C0.34375 17.7117 0.873188 15.0914 1.93206 12.6391C2.98959 10.1867 4.42539 8.05352 6.23945 6.23945C8.05352 4.42539 10.1867 2.98892 12.6391 1.93005C15.0914 0.872515 17.7117 0.34375 20.5 0.34375C23.2883 0.34375 25.9086 0.872515 28.3609 1.93005C30.8133 2.98892 32.9465 4.42539 34.7605 6.23945C36.5746 8.05352 38.0104 10.1867 39.0679 12.6391C40.1268 15.0914 40.6562 17.7117 40.6562 20.5C40.6562 23.2883 40.1268 25.9086 39.0679 28.3609C38.0104 30.8133 36.5746 32.9465 34.7605 34.7605C32.9465 36.5746 30.8133 38.0104 28.3609 39.0679C25.9086 40.1268 23.2883 40.6562 20.5 40.6562ZM18.6859 34.6094H22.2133V32.0898C23.893 31.7875 25.3375 31.1324 26.5469 30.1246C27.7563 29.1168 28.3609 27.6219 28.3609 25.6398C28.3609 24.2289 27.9578 22.9355 27.1516 21.7598C26.3453 20.584 24.7328 19.5594 22.3141 18.6859C20.2984 18.0141 18.9043 17.4262 18.1316 16.9223C17.359 16.4184 16.9727 15.7297 16.9727 14.8562C16.9727 13.9828 17.2837 13.2941 17.9059 12.7902C18.5267 12.2863 19.425 12.0344 20.6008 12.0344C21.6758 12.0344 22.5156 12.2951 23.1203 12.8164C23.725 13.3365 24.1617 13.9828 24.4305 14.7555L27.6555 13.4453C27.2859 12.2695 26.606 11.2449 25.6157 10.3715C24.624 9.49805 23.5234 9.01094 22.3141 8.91016V6.39062H18.7867V8.91016C17.107 9.27969 15.7969 10.0188 14.8562 11.1273C13.9156 12.2359 13.4453 13.4789 13.4453 14.8562C13.4453 16.4352 13.9076 17.7117 14.8321 18.6859C15.7552 19.6602 17.2078 20.5 19.1898 21.2055C21.3063 21.9781 22.7763 22.6668 23.6 23.2715C24.4224 23.8762 24.8336 24.6656 24.8336 25.6398C24.8336 26.7484 24.4385 27.5627 23.6484 28.0828C22.8596 28.6042 21.9109 28.8648 20.8023 28.8648C19.6937 28.8648 18.7115 28.5202 17.8555 27.8308C16.9982 27.1428 16.368 26.1102 15.9648 24.7328L12.6391 26.043C13.1094 27.6555 13.8404 28.9576 14.8321 29.9492C15.8224 30.9396 17.107 31.6195 18.6859 31.9891V34.6094Z" fill="#25A559"/>
</svg>
