<svg width="18" height="15" viewBox="0 0 18 15" fill="none" xmlns="http://www.w3.org/2000/svg">
<path d="M5.12302 11.9318V13.9773C5.12302 14.2614 5.02964 14.5028 4.84288 14.7017C4.65612 14.9006 4.42934 15 4.16254 15H0.960963C0.694164 15 0.467386 14.9006 0.280627 14.7017C0.0938677 14.5028 0.000488281 14.2614 0.000488281 13.9773V11.9318C0.000488281 11.6477 0.0938677 11.4062 0.280627 11.2074C0.467386 11.0085 0.694164 10.9091 0.960963 10.9091H4.16254C4.42934 10.9091 4.65612 11.0085 4.84288 11.2074C5.02964 11.4062 5.12302 11.6477 5.12302 11.9318ZM5.12302 6.47727V8.52273C5.12302 8.80682 5.02964 9.0483 4.84288 9.24716C4.65612 9.44602 4.42934 9.54545 4.16254 9.54545H0.960963C0.694164 9.54545 0.467386 9.44602 0.280627 9.24716C0.0938677 9.0483 0.000488281 8.80682 0.000488281 8.52273V6.47727C0.000488281 6.19318 0.0938677 5.9517 0.280627 5.75284C0.467386 5.55398 0.694164 5.45455 0.960963 5.45455H4.16254C4.42934 5.45455 4.65612 5.55398 4.84288 5.75284C5.02964 5.9517 5.12302 6.19318 5.12302 6.47727ZM17.9293 11.9318V13.9773C17.9293 14.2614 17.836 14.5028 17.6492 14.7017C17.4624 14.9006 17.2357 15 16.9689 15H7.36412C7.09733 15 6.87055 14.9006 6.68379 14.7017C6.49703 14.5028 6.40365 14.2614 6.40365 13.9773V11.9318C6.40365 11.6477 6.49703 11.4062 6.68379 11.2074C6.87055 11.0085 7.09733 10.9091 7.36412 10.9091H16.9689C17.2357 10.9091 17.4624 11.0085 17.6492 11.2074C17.836 11.4062 17.9293 11.6477 17.9293 11.9318ZM5.12302 1.02273V3.06818C5.12302 3.35227 5.02964 3.59375 4.84288 3.79261C4.65612 3.99148 4.42934 4.09091 4.16254 4.09091H0.960963C0.694164 4.09091 0.467386 3.99148 0.280627 3.79261C0.0938677 3.59375 0.000488281 3.35227 0.000488281 3.06818V1.02273C0.000488281 0.738636 0.0938677 0.497159 0.280627 0.298295C0.467386 0.0994318 0.694164 0 0.960963 0H4.16254C4.42934 0 4.65612 0.0994318 4.84288 0.298295C5.02964 0.497159 5.12302 0.738636 5.12302 1.02273ZM17.9293 6.47727V8.52273C17.9293 8.80682 17.836 9.0483 17.6492 9.24716C17.4624 9.44602 17.2357 9.54545 16.9689 9.54545H7.36412C7.09733 9.54545 6.87055 9.44602 6.68379 9.24716C6.49703 9.0483 6.40365 8.80682 6.40365 8.52273V6.47727C6.40365 6.19318 6.49703 5.9517 6.68379 5.75284C6.87055 5.55398 7.09733 5.45455 7.36412 5.45455H16.9689C17.2357 5.45455 17.4624 5.55398 17.6492 5.75284C17.836 5.9517 17.9293 6.19318 17.9293 6.47727ZM17.9293 1.02273V3.06818C17.9293 3.35227 17.836 3.59375 17.6492 3.79261C17.4624 3.99148 17.2357 4.09091 16.9689 4.09091H7.36412C7.09733 4.09091 6.87055 3.99148 6.68379 3.79261C6.49703 3.59375 6.40365 3.35227 6.40365 3.06818V1.02273C6.40365 0.738636 6.49703 0.497159 6.68379 0.298295C6.87055 0.0994318 7.09733 0 7.36412 0H16.9689C17.2357 0 17.4624 0.0994318 17.6492 0.298295C17.836 0.497159 17.9293 0.738636 17.9293 1.02273Z" fill="#AAAAAA"/>
</svg>
