<svg width="28" height="28" viewBox="0 0 28 28" fill="none" xmlns="http://www.w3.org/2000/svg">
<path d="M24.5811 22.7905C25.9947 21.0896 26.978 19.0732 27.4476 16.912C27.9172 14.7507 27.8593 12.5082 27.2789 10.374C26.6985 8.23983 25.6126 6.27684 24.1131 4.6511C22.6136 3.02535 20.7446 1.78467 18.6642 1.03402C16.5838 0.283364 14.3532 0.0448149 12.1612 0.338552C9.96906 0.63229 7.87996 1.44967 6.07058 2.72155C4.2612 3.99343 2.78477 5.68239 1.76618 7.64556C0.747593 9.60873 0.216818 11.7883 0.218755 14C0.219499 17.2152 1.3525 20.3274 3.41896 22.7905L3.39927 22.8072C3.46818 22.8899 3.54693 22.9608 3.6178 23.0425C3.7064 23.1439 3.80188 23.2394 3.89343 23.3378C4.16905 23.6371 4.45255 23.9245 4.74983 24.1942C4.8404 24.2769 4.93391 24.3537 5.02546 24.4324C5.34046 24.7041 5.66432 24.962 5.99999 25.2022C6.0433 25.2317 6.08268 25.2701 6.12599 25.3006V25.2888C8.4315 26.9112 11.1818 27.782 14.001 27.782C16.8201 27.782 19.5705 26.9112 21.876 25.2888V25.3006C21.9193 25.2701 21.9577 25.2317 22.002 25.2022C22.3367 24.961 22.6615 24.7041 22.9765 24.4324C23.0681 24.3537 23.1616 24.2759 23.2521 24.1942C23.5494 23.9235 23.8329 23.6371 24.1086 23.3378C24.2001 23.2394 24.2946 23.1439 24.3842 23.0425C24.4541 22.9608 24.5338 22.8899 24.6027 22.8062L24.5811 22.7905ZM14 6.12502C14.8761 6.12502 15.7325 6.38482 16.461 6.87156C17.1895 7.3583 17.7572 8.05012 18.0925 8.85954C18.4278 9.66896 18.5155 10.5596 18.3446 11.4189C18.1737 12.2782 17.7518 13.0675 17.1323 13.687C16.5128 14.3065 15.7235 14.7284 14.8642 14.8993C14.0049 15.0702 13.1143 14.9825 12.3048 14.6472C11.4954 14.3119 10.8036 13.7442 10.3169 13.0157C9.83011 12.2873 9.57032 11.4308 9.57032 10.5547C9.57032 9.37988 10.037 8.25318 10.8677 7.42245C11.6985 6.59172 12.8252 6.12502 14 6.12502ZM6.1319 22.7905C6.14897 21.498 6.67423 20.2642 7.59404 19.3559C8.51385 18.4477 9.75425 17.9382 11.0469 17.9375H16.9531C18.2458 17.9382 19.4862 18.4477 20.406 19.3559C21.3258 20.2642 21.851 21.498 21.8681 22.7905C19.7092 24.7359 16.9061 25.8126 14 25.8126C11.0939 25.8126 8.29079 24.7359 6.1319 22.7905Z" fill="#25A559"/>
</svg>
